<?xml version="1.0" encoding="UTF-8" standalone="no"?>
<!DOCTYPE svg PUBLIC "-//W3C//DTD SVG 1.1//EN"
 "http://www.w3.org/Graphics/SVG/1.1/DTD/svg11.dtd">
<!-- Generated by graphviz version 2.40.1 (20161225.0304)
 -->
<!-- Title: %3 Pages: 1 -->
<svg width="147pt" height="325pt"
 viewBox="0.00 0.00 147.00 325.00" xmlns="http://www.w3.org/2000/svg" xmlns:xlink="http://www.w3.org/1999/xlink">
<g id="graph0" class="graph" transform="scale(1 1) rotate(0) translate(4 321)">
<title>%3</title>
<polygon fill="#ffffff" stroke="transparent" points="-4,4 -4,-321 143,-321 143,4 -4,4"/>
<!-- 1 -->
<g id="node1" class="node">
<title>1</title>
<polygon fill="#ff0000" stroke="#ff0000" points="55,-317 0,-317 0,-276 55,-276 55,-317"/>
<text text-anchor="middle" x="27.5" y="-305" font-family="Arial" font-size="10.00" fill="#ffffff">main</text>
<text text-anchor="middle" x="27.5" y="-294" font-family="Arial" font-size="10.00" fill="#ffffff">100.00%</text>
<text text-anchor="middle" x="27.5" y="-283" font-family="Arial" font-size="10.00" fill="#ffffff">(0.26%)</text>
</g>
<!-- 2 -->
<g id="node2" class="node">
<title>2</title>
<polygon fill="#fe0800" stroke="#fe0800" points="56.5,-144 .5,-144 .5,-92 56.5,-92 56.5,-144"/>
<text text-anchor="middle" x="28.5" y="-132" font-family="Arial" font-size="10.00" fill="#ffffff">findEdge</text>
<text text-anchor="middle" x="28.5" y="-121" font-family="Arial" font-size="10.00" fill="#ffffff">99.22%</text>
<text text-anchor="middle" x="28.5" y="-110" font-family="Arial" font-size="10.00" fill="#ffffff">(99.22%)</text>
<text text-anchor="middle" x="28.5" y="-99" font-family="Arial" font-size="10.00" fill="#ffffff">487836×</text>
</g>
<!-- 1&#45;&gt;2 -->
<g id="edge1" class="edge">
<title>1&#45;&gt;2</title>
<path fill="none" stroke="#fe0a00" stroke-width="3.96" d="M25.7918,-275.7962C24.9136,-264.1192 23.9377,-249.256 23.5,-236 22.7372,-212.9015 22.6265,-207.0946 23.5,-184 23.8636,-174.3866 24.5241,-164.0024 25.2485,-154.3797"/>
<polygon fill="#fe0a00" stroke="#fe0a00" stroke-width="3.96" points="28.7455,-154.5552 26.0485,-144.3094 21.7675,-154.0008 28.7455,-154.5552"/>
<text text-anchor="middle" x="42.5" y="-213" font-family="Arial" font-size="10.00" fill="#fe0a00">99.02%</text>
<text text-anchor="middle" x="42.5" y="-202" font-family="Arial" font-size="10.00" fill="#fe0a00">486837×</text>
</g>
<!-- 3 -->
<g id="node3" class="node">
<title>3</title>
<polygon fill="#0d1074" stroke="#0d1074" points="139,-236 66,-236 66,-184 139,-184 139,-236"/>
<text text-anchor="middle" x="102.5" y="-224" font-family="Arial" font-size="10.00" fill="#ffffff">DijkstraOMP</text>
<text text-anchor="middle" x="102.5" y="-213" font-family="Arial" font-size="10.00" fill="#ffffff">0.72%</text>
<text text-anchor="middle" x="102.5" y="-202" font-family="Arial" font-size="10.00" fill="#ffffff">(0.00%)</text>
<text text-anchor="middle" x="102.5" y="-191" font-family="Arial" font-size="10.00" fill="#ffffff">1×</text>
</g>
<!-- 1&#45;&gt;3 -->
<g id="edge2" class="edge">
<title>1&#45;&gt;3</title>
<path fill="none" stroke="#0d1074" stroke-width=".5" d="M45.6554,-275.5608C55.2478,-264.4975 67.1657,-250.7522 77.6077,-238.7092"/>
<polygon fill="#0d1074" stroke="#0d1074" stroke-width=".5" points="78.5825,-239.4548 79.9499,-236.0078 76.7314,-237.8497 78.5825,-239.4548"/>
<text text-anchor="middle" x="86.5" y="-259" font-family="Arial" font-size="10.00" fill="#0d1074">0.72%</text>
<text text-anchor="middle" x="86.5" y="-248" font-family="Arial" font-size="10.00" fill="#0d1074">1×</text>
</g>
<!-- 3&#45;&gt;2 -->
<g id="edge3" class="edge">
<title>3&#45;&gt;2</title>
<path fill="none" stroke="#0d0e73" stroke-width=".5" d="M79.7482,-183.7488C77.2805,-180.815 74.8234,-177.8556 72.5,-175 65.1353,-165.9485 57.2915,-155.9197 50.297,-146.8295"/>
<polygon fill="#0d0e73" stroke="#0d0e73" stroke-width=".5" points="51.2586,-146.0703 48.1551,-144.0407 49.3155,-147.5627 51.2586,-146.0703"/>
<text text-anchor="middle" x="86.5" y="-167" font-family="Arial" font-size="10.00" fill="#0d0e73">0.20%</text>
<text text-anchor="middle" x="86.5" y="-156" font-family="Arial" font-size="10.00" fill="#0d0e73">999×</text>
</g>
<!-- 4 -->
<g id="node4" class="node">
<title>4</title>
<polygon fill="#0d0f73" stroke="#0d0f73" points="129,-144 76,-144 76,-92 129,-92 129,-144"/>
<text text-anchor="middle" x="102.5" y="-132" font-family="Arial" font-size="10.00" fill="#ffffff">minPath</text>
<text text-anchor="middle" x="102.5" y="-121" font-family="Arial" font-size="10.00" fill="#ffffff">0.52%</text>
<text text-anchor="middle" x="102.5" y="-110" font-family="Arial" font-size="10.00" fill="#ffffff">(0.00%)</text>
<text text-anchor="middle" x="102.5" y="-99" font-family="Arial" font-size="10.00" fill="#ffffff">1000×</text>
</g>
<!-- 3&#45;&gt;4 -->
<g id="edge4" class="edge">
<title>3&#45;&gt;4</title>
<path fill="none" stroke="#0d0f73" stroke-width=".5" d="M102.5,-183.8826C102.5,-172.6171 102.5,-159.3815 102.5,-147.7404"/>
<polygon fill="#0d0f73" stroke="#0d0f73" stroke-width=".5" points="103.7251,-147.6827 102.5,-144.1827 101.2751,-147.6828 103.7251,-147.6827"/>
<text text-anchor="middle" x="116.5" y="-167" font-family="Arial" font-size="10.00" fill="#0d0f73">0.52%</text>
<text text-anchor="middle" x="116.5" y="-156" font-family="Arial" font-size="10.00" fill="#0d0f73">1000×</text>
</g>
<!-- 5 -->
<g id="node5" class="node">
<title>5</title>
<polygon fill="#0d0f73" stroke="#0d0f73" points="134,-52 71,-52 71,0 134,0 134,-52"/>
<text text-anchor="middle" x="102.5" y="-40" font-family="Arial" font-size="10.00" fill="#ffffff">minWeight</text>
<text text-anchor="middle" x="102.5" y="-29" font-family="Arial" font-size="10.00" fill="#ffffff">0.52%</text>
<text text-anchor="middle" x="102.5" y="-18" font-family="Arial" font-size="10.00" fill="#ffffff">(0.52%)</text>
<text text-anchor="middle" x="102.5" y="-7" font-family="Arial" font-size="10.00" fill="#ffffff">1000×</text>
</g>
<!-- 4&#45;&gt;5 -->
<g id="edge5" class="edge">
<title>4&#45;&gt;5</title>
<path fill="none" stroke="#0d0f73" stroke-width=".5" d="M102.5,-91.8826C102.5,-80.6171 102.5,-67.3815 102.5,-55.7404"/>
<polygon fill="#0d0f73" stroke="#0d0f73" stroke-width=".5" points="103.7251,-55.6827 102.5,-52.1827 101.2751,-55.6828 103.7251,-55.6827"/>
<text text-anchor="middle" x="116.5" y="-75" font-family="Arial" font-size="10.00" fill="#0d0f73">0.52%</text>
<text text-anchor="middle" x="116.5" y="-64" font-family="Arial" font-size="10.00" fill="#0d0f73">1000×</text>
</g>
</g>
</svg>
